<mxfile host="app.diagrams.net" agent="Mozilla/5.0 (Windows NT 10.0; Win64; x64) AppleWebKit/537.36 (KHTML, like Gecko) Chrome/127.0.0.0 Safari/537.36 Edg/127.0.0.0" version="24.7.6" pages="4">
  <diagram name="初始阶段" id="jw7j3efEy1RLHnT7GN2Z">
    <mxGraphModel dx="1002" dy="575" grid="1" gridSize="10" guides="1" tooltips="1" connect="1" arrows="1" fold="1" page="1" pageScale="1" pageWidth="827" pageHeight="1169" math="0" shadow="0">
      <root>
        <mxCell id="0" />
        <mxCell id="1" parent="0" />
        <mxCell id="SdSy6VDpgg09yMkx23FY-1" value="顾客" style="shape=umlActor;verticalLabelPosition=bottom;verticalAlign=top;html=1;outlineConnect=0;" vertex="1" parent="1">
          <mxGeometry x="710" y="170" width="30" height="60" as="geometry" />
        </mxCell>
        <mxCell id="SdSy6VDpgg09yMkx23FY-9" value="" style="edgeStyle=orthogonalEdgeStyle;rounded=0;orthogonalLoop=1;jettySize=auto;html=1;exitX=1;exitY=0.3333333333333333;exitDx=0;exitDy=0;exitPerimeter=0;entryX=0;entryY=0.5;entryDx=0;entryDy=0;" edge="1" parent="1" source="SdSy6VDpgg09yMkx23FY-3" target="SdSy6VDpgg09yMkx23FY-5">
          <mxGeometry relative="1" as="geometry" />
        </mxCell>
        <mxCell id="SdSy6VDpgg09yMkx23FY-13" style="edgeStyle=orthogonalEdgeStyle;rounded=0;orthogonalLoop=1;jettySize=auto;html=1;exitX=1;exitY=0.3333333333333333;exitDx=0;exitDy=0;exitPerimeter=0;entryX=0.563;entryY=0.06;entryDx=0;entryDy=0;entryPerimeter=0;" edge="1" parent="1" source="SdSy6VDpgg09yMkx23FY-3" target="SdSy6VDpgg09yMkx23FY-12">
          <mxGeometry relative="1" as="geometry" />
        </mxCell>
        <mxCell id="SdSy6VDpgg09yMkx23FY-19" style="edgeStyle=orthogonalEdgeStyle;rounded=0;orthogonalLoop=1;jettySize=auto;html=1;exitX=1;exitY=0.3333333333333333;exitDx=0;exitDy=0;exitPerimeter=0;entryX=0;entryY=0.25;entryDx=0;entryDy=0;" edge="1" parent="1" source="SdSy6VDpgg09yMkx23FY-3" target="SdSy6VDpgg09yMkx23FY-11">
          <mxGeometry relative="1" as="geometry">
            <Array as="points">
              <mxPoint x="250" y="130" />
              <mxPoint x="250" y="245" />
            </Array>
          </mxGeometry>
        </mxCell>
        <mxCell id="SdSy6VDpgg09yMkx23FY-21" style="edgeStyle=orthogonalEdgeStyle;rounded=0;orthogonalLoop=1;jettySize=auto;html=1;exitX=1;exitY=0.3333333333333333;exitDx=0;exitDy=0;exitPerimeter=0;entryX=0.5;entryY=0;entryDx=0;entryDy=0;entryPerimeter=0;" edge="1" parent="1" source="SdSy6VDpgg09yMkx23FY-3" target="SdSy6VDpgg09yMkx23FY-1">
          <mxGeometry relative="1" as="geometry">
            <Array as="points">
              <mxPoint x="80" y="80" />
              <mxPoint x="725" y="80" />
            </Array>
          </mxGeometry>
        </mxCell>
        <mxCell id="SdSy6VDpgg09yMkx23FY-3" value="摊主" style="shape=umlActor;verticalLabelPosition=bottom;verticalAlign=top;html=1;outlineConnect=0;" vertex="1" parent="1">
          <mxGeometry x="50" y="110" width="30" height="60" as="geometry" />
        </mxCell>
        <mxCell id="SdSy6VDpgg09yMkx23FY-17" style="edgeStyle=orthogonalEdgeStyle;rounded=0;orthogonalLoop=1;jettySize=auto;html=1;exitX=0.5;exitY=1;exitDx=0;exitDy=0;entryX=0.5;entryY=0;entryDx=0;entryDy=0;" edge="1" parent="1" source="SdSy6VDpgg09yMkx23FY-5" target="SdSy6VDpgg09yMkx23FY-11">
          <mxGeometry relative="1" as="geometry" />
        </mxCell>
        <mxCell id="SdSy6VDpgg09yMkx23FY-5" value="开源模型" style="rounded=1;whiteSpace=wrap;html=1;" vertex="1" parent="1">
          <mxGeometry x="304" y="100" width="120" height="60" as="geometry" />
        </mxCell>
        <mxCell id="SdSy6VDpgg09yMkx23FY-20" style="edgeStyle=orthogonalEdgeStyle;rounded=0;orthogonalLoop=1;jettySize=auto;html=1;exitX=1;exitY=0.5;exitDx=0;exitDy=0;entryX=0;entryY=0.3333333333333333;entryDx=0;entryDy=0;entryPerimeter=0;" edge="1" parent="1" source="SdSy6VDpgg09yMkx23FY-6" target="SdSy6VDpgg09yMkx23FY-1">
          <mxGeometry relative="1" as="geometry" />
        </mxCell>
        <mxCell id="SdSy6VDpgg09yMkx23FY-6" value="3D玩具" style="rounded=1;whiteSpace=wrap;html=1;" vertex="1" parent="1">
          <mxGeometry x="480" y="160" width="120" height="60" as="geometry" />
        </mxCell>
        <mxCell id="SdSy6VDpgg09yMkx23FY-16" style="edgeStyle=orthogonalEdgeStyle;rounded=0;orthogonalLoop=1;jettySize=auto;html=1;exitX=1;exitY=0.5;exitDx=0;exitDy=0;entryX=0;entryY=0.5;entryDx=0;entryDy=0;" edge="1" parent="1" source="SdSy6VDpgg09yMkx23FY-11" target="SdSy6VDpgg09yMkx23FY-6">
          <mxGeometry relative="1" as="geometry" />
        </mxCell>
        <mxCell id="SdSy6VDpgg09yMkx23FY-11" value="3D打印机" style="rounded=1;whiteSpace=wrap;html=1;" vertex="1" parent="1">
          <mxGeometry x="304" y="230" width="120" height="60" as="geometry" />
        </mxCell>
        <mxCell id="SdSy6VDpgg09yMkx23FY-18" style="edgeStyle=orthogonalEdgeStyle;rounded=0;orthogonalLoop=1;jettySize=auto;html=1;exitX=1;exitY=0.5;exitDx=0;exitDy=0;entryX=0;entryY=0.5;entryDx=0;entryDy=0;" edge="1" parent="1" source="SdSy6VDpgg09yMkx23FY-12" target="SdSy6VDpgg09yMkx23FY-11">
          <mxGeometry relative="1" as="geometry" />
        </mxCell>
        <mxCell id="SdSy6VDpgg09yMkx23FY-12" value="耗材" style="rounded=1;whiteSpace=wrap;html=1;" vertex="1" parent="1">
          <mxGeometry x="110" y="230" width="120" height="60" as="geometry" />
        </mxCell>
      </root>
    </mxGraphModel>
  </diagram>
  <diagram id="p1zaN8cH9IPirDvPwvv1" name="当前情况">
    <mxGraphModel dx="1002" dy="575" grid="1" gridSize="10" guides="1" tooltips="1" connect="1" arrows="1" fold="1" page="1" pageScale="1" pageWidth="827" pageHeight="1169" math="0" shadow="0">
      <root>
        <mxCell id="0" />
        <mxCell id="1" parent="0" />
        <mxCell id="KprSGT6z1ThBx23_POGr-17" style="edgeStyle=orthogonalEdgeStyle;rounded=0;orthogonalLoop=1;jettySize=auto;html=1;exitX=0.25;exitY=0.1;exitDx=0;exitDy=0;exitPerimeter=0;entryX=1;entryY=0.5;entryDx=0;entryDy=0;" edge="1" parent="1" source="KprSGT6z1ThBx23_POGr-1" target="KprSGT6z1ThBx23_POGr-8">
          <mxGeometry relative="1" as="geometry">
            <Array as="points">
              <mxPoint x="718" y="130" />
            </Array>
          </mxGeometry>
        </mxCell>
        <mxCell id="KprSGT6z1ThBx23_POGr-21" style="edgeStyle=orthogonalEdgeStyle;rounded=0;orthogonalLoop=1;jettySize=auto;html=1;exitX=1;exitY=0.3333333333333333;exitDx=0;exitDy=0;exitPerimeter=0;entryX=0;entryY=0.3333333333333333;entryDx=0;entryDy=0;entryPerimeter=0;" edge="1" parent="1" source="KprSGT6z1ThBx23_POGr-1" target="KprSGT6z1ThBx23_POGr-20">
          <mxGeometry relative="1" as="geometry" />
        </mxCell>
        <mxCell id="KprSGT6z1ThBx23_POGr-1" value="经销商" style="shape=umlActor;verticalLabelPosition=bottom;verticalAlign=top;html=1;outlineConnect=0;" vertex="1" parent="1">
          <mxGeometry x="710" y="170" width="30" height="60" as="geometry" />
        </mxCell>
        <mxCell id="KprSGT6z1ThBx23_POGr-3" style="edgeStyle=orthogonalEdgeStyle;rounded=0;orthogonalLoop=1;jettySize=auto;html=1;exitX=1;exitY=0.3333333333333333;exitDx=0;exitDy=0;exitPerimeter=0;entryX=0.563;entryY=0.06;entryDx=0;entryDy=0;entryPerimeter=0;" edge="1" parent="1" source="KprSGT6z1ThBx23_POGr-6" target="KprSGT6z1ThBx23_POGr-14">
          <mxGeometry relative="1" as="geometry" />
        </mxCell>
        <mxCell id="KprSGT6z1ThBx23_POGr-4" style="edgeStyle=orthogonalEdgeStyle;rounded=0;orthogonalLoop=1;jettySize=auto;html=1;exitX=1;exitY=0.3333333333333333;exitDx=0;exitDy=0;exitPerimeter=0;entryX=0;entryY=0.25;entryDx=0;entryDy=0;" edge="1" parent="1" source="KprSGT6z1ThBx23_POGr-6" target="KprSGT6z1ThBx23_POGr-12">
          <mxGeometry relative="1" as="geometry">
            <Array as="points">
              <mxPoint x="250" y="130" />
              <mxPoint x="250" y="245" />
            </Array>
          </mxGeometry>
        </mxCell>
        <mxCell id="KprSGT6z1ThBx23_POGr-5" style="edgeStyle=orthogonalEdgeStyle;rounded=0;orthogonalLoop=1;jettySize=auto;html=1;exitX=1;exitY=0.3333333333333333;exitDx=0;exitDy=0;exitPerimeter=0;entryX=0.5;entryY=0;entryDx=0;entryDy=0;entryPerimeter=0;" edge="1" parent="1" source="KprSGT6z1ThBx23_POGr-6" target="KprSGT6z1ThBx23_POGr-1">
          <mxGeometry relative="1" as="geometry">
            <Array as="points">
              <mxPoint x="80" y="80" />
              <mxPoint x="725" y="80" />
            </Array>
          </mxGeometry>
        </mxCell>
        <mxCell id="KprSGT6z1ThBx23_POGr-6" value="农场主" style="shape=umlActor;verticalLabelPosition=bottom;verticalAlign=top;html=1;outlineConnect=0;" vertex="1" parent="1">
          <mxGeometry x="50" y="110" width="30" height="60" as="geometry" />
        </mxCell>
        <mxCell id="KprSGT6z1ThBx23_POGr-7" style="edgeStyle=orthogonalEdgeStyle;rounded=0;orthogonalLoop=1;jettySize=auto;html=1;exitX=0.5;exitY=1;exitDx=0;exitDy=0;entryX=0.5;entryY=0;entryDx=0;entryDy=0;" edge="1" parent="1" source="KprSGT6z1ThBx23_POGr-8" target="KprSGT6z1ThBx23_POGr-12">
          <mxGeometry relative="1" as="geometry" />
        </mxCell>
        <mxCell id="KprSGT6z1ThBx23_POGr-8" value="开源模型" style="rounded=1;whiteSpace=wrap;html=1;" vertex="1" parent="1">
          <mxGeometry x="304" y="100" width="120" height="60" as="geometry" />
        </mxCell>
        <mxCell id="KprSGT6z1ThBx23_POGr-9" style="edgeStyle=orthogonalEdgeStyle;rounded=0;orthogonalLoop=1;jettySize=auto;html=1;exitX=1;exitY=0.5;exitDx=0;exitDy=0;entryX=0;entryY=0.3333333333333333;entryDx=0;entryDy=0;entryPerimeter=0;" edge="1" parent="1" source="KprSGT6z1ThBx23_POGr-10" target="KprSGT6z1ThBx23_POGr-1">
          <mxGeometry relative="1" as="geometry" />
        </mxCell>
        <mxCell id="KprSGT6z1ThBx23_POGr-10" value="3D玩具" style="rounded=1;whiteSpace=wrap;html=1;" vertex="1" parent="1">
          <mxGeometry x="480" y="160" width="120" height="60" as="geometry" />
        </mxCell>
        <mxCell id="KprSGT6z1ThBx23_POGr-11" style="edgeStyle=orthogonalEdgeStyle;rounded=0;orthogonalLoop=1;jettySize=auto;html=1;exitX=1;exitY=0.5;exitDx=0;exitDy=0;entryX=0;entryY=0.5;entryDx=0;entryDy=0;" edge="1" parent="1" source="KprSGT6z1ThBx23_POGr-12" target="KprSGT6z1ThBx23_POGr-10">
          <mxGeometry relative="1" as="geometry" />
        </mxCell>
        <mxCell id="KprSGT6z1ThBx23_POGr-12" value="3D打印机" style="rounded=1;whiteSpace=wrap;html=1;" vertex="1" parent="1">
          <mxGeometry x="304" y="230" width="120" height="60" as="geometry" />
        </mxCell>
        <mxCell id="KprSGT6z1ThBx23_POGr-13" style="edgeStyle=orthogonalEdgeStyle;rounded=0;orthogonalLoop=1;jettySize=auto;html=1;exitX=1;exitY=0.5;exitDx=0;exitDy=0;entryX=0;entryY=0.5;entryDx=0;entryDy=0;" edge="1" parent="1" source="KprSGT6z1ThBx23_POGr-14" target="KprSGT6z1ThBx23_POGr-12">
          <mxGeometry relative="1" as="geometry" />
        </mxCell>
        <mxCell id="KprSGT6z1ThBx23_POGr-14" value="耗材" style="rounded=1;whiteSpace=wrap;html=1;" vertex="1" parent="1">
          <mxGeometry x="110" y="230" width="120" height="60" as="geometry" />
        </mxCell>
        <mxCell id="KprSGT6z1ThBx23_POGr-18" value="消费者" style="shape=umlActor;verticalLabelPosition=bottom;verticalAlign=top;html=1;outlineConnect=0;" vertex="1" parent="1">
          <mxGeometry x="870" y="170" width="30" height="60" as="geometry" />
        </mxCell>
        <mxCell id="KprSGT6z1ThBx23_POGr-22" style="edgeStyle=orthogonalEdgeStyle;rounded=0;orthogonalLoop=1;jettySize=auto;html=1;exitX=1;exitY=0.3333333333333333;exitDx=0;exitDy=0;exitPerimeter=0;entryX=0;entryY=0.3333333333333333;entryDx=0;entryDy=0;entryPerimeter=0;" edge="1" parent="1" source="KprSGT6z1ThBx23_POGr-20" target="KprSGT6z1ThBx23_POGr-18">
          <mxGeometry relative="1" as="geometry" />
        </mxCell>
        <mxCell id="KprSGT6z1ThBx23_POGr-20" value="摊贩" style="shape=umlActor;verticalLabelPosition=bottom;verticalAlign=top;html=1;outlineConnect=0;" vertex="1" parent="1">
          <mxGeometry x="780" y="170" width="30" height="60" as="geometry" />
        </mxCell>
        <mxCell id="KprSGT6z1ThBx23_POGr-23" value="萝卜刀的故事：&lt;br&gt;为何是农场主而非开模？&lt;br&gt;&amp;nbsp;&lt;br&gt;&lt;br&gt;" style="whiteSpace=wrap;html=1;shape=mxgraph.basic.cloud_callout;fontStyle=1;horizontal=1;verticalAlign=middle;fontSize=12;fontColor=#FF8000;" vertex="1" parent="1">
          <mxGeometry x="750" y="20" width="170" height="110" as="geometry" />
        </mxCell>
      </root>
    </mxGraphModel>
  </diagram>
  <diagram id="fD8Ocd6tcx8sQcgmPEki" name="最终阶段">
    <mxGraphModel dx="1426" dy="1952" grid="1" gridSize="10" guides="1" tooltips="1" connect="1" arrows="1" fold="1" page="1" pageScale="1" pageWidth="827" pageHeight="1169" math="0" shadow="0">
      <root>
        <mxCell id="0" />
        <mxCell id="1" parent="0" />
        <mxCell id="PcVtEgF49G6TSoYTV_3X-16" value="消费者" style="shape=umlActor;verticalLabelPosition=bottom;verticalAlign=top;html=1;outlineConnect=0;" vertex="1" parent="1">
          <mxGeometry x="720" y="120" width="30" height="60" as="geometry" />
        </mxCell>
        <mxCell id="PcVtEgF49G6TSoYTV_3X-36" style="edgeStyle=orthogonalEdgeStyle;rounded=0;orthogonalLoop=1;jettySize=auto;html=1;exitX=1;exitY=0.3333333333333333;exitDx=0;exitDy=0;exitPerimeter=0;entryX=0;entryY=0.5;entryDx=0;entryDy=0;" edge="1" parent="1" source="PcVtEgF49G6TSoYTV_3X-18" target="PcVtEgF49G6TSoYTV_3X-35">
          <mxGeometry relative="1" as="geometry" />
        </mxCell>
        <mxCell id="PcVtEgF49G6TSoYTV_3X-18" value="摊贩" style="shape=umlActor;verticalLabelPosition=bottom;verticalAlign=top;html=1;outlineConnect=0;" vertex="1" parent="1">
          <mxGeometry x="465" y="120" width="30" height="60" as="geometry" />
        </mxCell>
        <mxCell id="PcVtEgF49G6TSoYTV_3X-21" value="" style="swimlane;startSize=0;" vertex="1" parent="1">
          <mxGeometry x="80" y="-350" width="790" height="360" as="geometry" />
        </mxCell>
        <mxCell id="PcVtEgF49G6TSoYTV_3X-22" value="优选模型" style="rounded=1;whiteSpace=wrap;html=1;" vertex="1" parent="PcVtEgF49G6TSoYTV_3X-21">
          <mxGeometry x="20" y="280" width="120" height="60" as="geometry" />
        </mxCell>
        <mxCell id="PcVtEgF49G6TSoYTV_3X-23" value="打印机" style="rounded=1;whiteSpace=wrap;html=1;" vertex="1" parent="PcVtEgF49G6TSoYTV_3X-21">
          <mxGeometry x="180" y="280" width="120" height="60" as="geometry" />
        </mxCell>
        <mxCell id="PcVtEgF49G6TSoYTV_3X-24" value="耗材" style="rounded=1;whiteSpace=wrap;html=1;" vertex="1" parent="PcVtEgF49G6TSoYTV_3X-21">
          <mxGeometry x="340" y="280" width="120" height="60" as="geometry" />
        </mxCell>
        <mxCell id="PcVtEgF49G6TSoYTV_3X-25" value="运维" style="rounded=1;whiteSpace=wrap;html=1;" vertex="1" parent="PcVtEgF49G6TSoYTV_3X-21">
          <mxGeometry x="500" y="280" width="120" height="60" as="geometry" />
        </mxCell>
        <mxCell id="PcVtEgF49G6TSoYTV_3X-26" value="摆摊指导" style="rounded=1;whiteSpace=wrap;html=1;" vertex="1" parent="PcVtEgF49G6TSoYTV_3X-21">
          <mxGeometry x="660" y="280" width="120" height="60" as="geometry" />
        </mxCell>
        <mxCell id="gtLbWPnSl4ffQ2jwvSzB-1" value="第一方设计" style="rounded=1;whiteSpace=wrap;html=1;" vertex="1" parent="PcVtEgF49G6TSoYTV_3X-21">
          <mxGeometry x="20" y="220" width="120" height="60" as="geometry" />
        </mxCell>
        <mxCell id="gtLbWPnSl4ffQ2jwvSzB-2" value="第三方投稿" style="rounded=1;whiteSpace=wrap;html=1;" vertex="1" parent="PcVtEgF49G6TSoYTV_3X-21">
          <mxGeometry x="20" y="160" width="120" height="60" as="geometry" />
        </mxCell>
        <mxCell id="gtLbWPnSl4ffQ2jwvSzB-3" value="AI设计" style="rounded=1;whiteSpace=wrap;html=1;" vertex="1" parent="PcVtEgF49G6TSoYTV_3X-21">
          <mxGeometry x="20" y="100" width="120" height="60" as="geometry" />
        </mxCell>
        <mxCell id="gtLbWPnSl4ffQ2jwvSzB-4" value="定制打印机" style="rounded=1;whiteSpace=wrap;html=1;" vertex="1" parent="PcVtEgF49G6TSoYTV_3X-21">
          <mxGeometry x="180" y="220" width="120" height="60" as="geometry" />
        </mxCell>
        <mxCell id="gtLbWPnSl4ffQ2jwvSzB-5" value="开源模型收集" style="rounded=1;whiteSpace=wrap;html=1;" vertex="1" parent="PcVtEgF49G6TSoYTV_3X-21">
          <mxGeometry x="20" y="40" width="120" height="60" as="geometry" />
        </mxCell>
        <mxCell id="gtLbWPnSl4ffQ2jwvSzB-6" value="开源打印机改造" style="rounded=1;whiteSpace=wrap;html=1;" vertex="1" parent="PcVtEgF49G6TSoYTV_3X-21">
          <mxGeometry x="180" y="160" width="120" height="60" as="geometry" />
        </mxCell>
        <mxCell id="gtLbWPnSl4ffQ2jwvSzB-7" value="耗材配套" style="rounded=1;whiteSpace=wrap;html=1;" vertex="1" parent="PcVtEgF49G6TSoYTV_3X-21">
          <mxGeometry x="340" y="220" width="120" height="60" as="geometry" />
        </mxCell>
        <mxCell id="PcVtEgF49G6TSoYTV_3X-28" style="edgeStyle=orthogonalEdgeStyle;rounded=0;orthogonalLoop=1;jettySize=auto;html=1;exitX=0.5;exitY=1;exitDx=0;exitDy=0;entryX=0.5;entryY=0;entryDx=0;entryDy=0;entryPerimeter=0;" edge="1" parent="1" source="PcVtEgF49G6TSoYTV_3X-22" target="PcVtEgF49G6TSoYTV_3X-18">
          <mxGeometry relative="1" as="geometry" />
        </mxCell>
        <mxCell id="PcVtEgF49G6TSoYTV_3X-29" style="edgeStyle=orthogonalEdgeStyle;rounded=0;orthogonalLoop=1;jettySize=auto;html=1;exitX=0.5;exitY=1;exitDx=0;exitDy=0;" edge="1" parent="1" source="PcVtEgF49G6TSoYTV_3X-23" target="PcVtEgF49G6TSoYTV_3X-18">
          <mxGeometry relative="1" as="geometry">
            <mxPoint x="230" y="120" as="targetPoint" />
          </mxGeometry>
        </mxCell>
        <mxCell id="PcVtEgF49G6TSoYTV_3X-30" style="edgeStyle=orthogonalEdgeStyle;rounded=0;orthogonalLoop=1;jettySize=auto;html=1;exitX=0.5;exitY=1;exitDx=0;exitDy=0;" edge="1" parent="1" source="PcVtEgF49G6TSoYTV_3X-24" target="PcVtEgF49G6TSoYTV_3X-18">
          <mxGeometry relative="1" as="geometry" />
        </mxCell>
        <mxCell id="PcVtEgF49G6TSoYTV_3X-33" style="edgeStyle=orthogonalEdgeStyle;rounded=0;orthogonalLoop=1;jettySize=auto;html=1;exitX=0.5;exitY=1;exitDx=0;exitDy=0;" edge="1" parent="1" source="PcVtEgF49G6TSoYTV_3X-25" target="PcVtEgF49G6TSoYTV_3X-18">
          <mxGeometry relative="1" as="geometry" />
        </mxCell>
        <mxCell id="PcVtEgF49G6TSoYTV_3X-34" style="edgeStyle=orthogonalEdgeStyle;rounded=0;orthogonalLoop=1;jettySize=auto;html=1;exitX=0.5;exitY=1;exitDx=0;exitDy=0;entryX=0.5;entryY=0;entryDx=0;entryDy=0;entryPerimeter=0;" edge="1" parent="1" source="PcVtEgF49G6TSoYTV_3X-26" target="PcVtEgF49G6TSoYTV_3X-18">
          <mxGeometry relative="1" as="geometry" />
        </mxCell>
        <mxCell id="PcVtEgF49G6TSoYTV_3X-35" value="3D玩具" style="rounded=1;whiteSpace=wrap;html=1;" vertex="1" parent="1">
          <mxGeometry x="540" y="110" width="120" height="60" as="geometry" />
        </mxCell>
        <mxCell id="PcVtEgF49G6TSoYTV_3X-37" style="edgeStyle=orthogonalEdgeStyle;rounded=0;orthogonalLoop=1;jettySize=auto;html=1;exitX=1;exitY=0.5;exitDx=0;exitDy=0;entryX=0;entryY=0.3333333333333333;entryDx=0;entryDy=0;entryPerimeter=0;" edge="1" parent="1" source="PcVtEgF49G6TSoYTV_3X-35" target="PcVtEgF49G6TSoYTV_3X-16">
          <mxGeometry relative="1" as="geometry" />
        </mxCell>
      </root>
    </mxGraphModel>
  </diagram>
  <diagram id="O5k2PgkLTcbQKAz9J3Fx" name="A1 封箱">
    <mxGraphModel dx="10334" dy="8727" grid="1" gridSize="10" guides="1" tooltips="1" connect="1" arrows="1" fold="1" page="1" pageScale="1" pageWidth="827" pageHeight="1169" math="0" shadow="0">
      <root>
        <mxCell id="0" />
        <mxCell id="1" parent="0" />
        <mxCell id="x2NNBHyVpTY2hgbB6gnr-8" value="200MM料盘 俯视图" style="ellipse;whiteSpace=wrap;html=1;aspect=fixed;fontSize=63;" vertex="1" parent="1">
          <mxGeometry x="11460" y="109.37000000000003" width="787.4" height="787.4" as="geometry" />
        </mxCell>
        <mxCell id="x2NNBHyVpTY2hgbB6gnr-12" value="料盘正视图" style="whiteSpace=wrap;html=1;fontSize=66;" vertex="1" parent="1">
          <mxGeometry x="1910" y="70" width="314.96" height="826.77" as="geometry" />
        </mxCell>
        <mxCell id="x2NNBHyVpTY2hgbB6gnr-13" value="料盘正视图" style="whiteSpace=wrap;html=1;fontSize=66;" vertex="1" parent="1">
          <mxGeometry x="2320" y="70" width="314.96" height="826.77" as="geometry" />
        </mxCell>
        <mxCell id="x2NNBHyVpTY2hgbB6gnr-14" value="料盘正视图" style="whiteSpace=wrap;html=1;fontSize=66;" vertex="1" parent="1">
          <mxGeometry x="2850" y="60" width="314.96" height="826.77" as="geometry" />
        </mxCell>
        <mxCell id="x2NNBHyVpTY2hgbB6gnr-15" value="料盘正视图" style="whiteSpace=wrap;html=1;fontSize=66;" vertex="1" parent="1">
          <mxGeometry x="3250" y="60" width="314.96" height="826.77" as="geometry" />
        </mxCell>
        <mxCell id="x2NNBHyVpTY2hgbB6gnr-18" value="" style="group" vertex="1" connectable="0" parent="1">
          <mxGeometry x="1810" y="-2520" width="1830.705" height="2440.94" as="geometry" />
        </mxCell>
        <mxCell id="x2NNBHyVpTY2hgbB6gnr-16" value="A1 本体" style="whiteSpace=wrap;html=1;fontSize=66;" vertex="1" parent="x2NNBHyVpTY2hgbB6gnr-18">
          <mxGeometry width="1830.705" height="2440.94" as="geometry" />
        </mxCell>
        <mxCell id="x2NNBHyVpTY2hgbB6gnr-17" value="" style="shape=image;verticalLabelPosition=bottom;labelBackgroundColor=default;verticalAlign=top;aspect=fixed;imageAspect=0;image=https://wiki.bambulab.com/a1/manual/faq/%E7%A9%BA%E9%97%B4.png;clipPath=inset(31.59% 36% 6.07% 25.67%);" vertex="1" parent="x2NNBHyVpTY2hgbB6gnr-18">
          <mxGeometry x="16.190000000000055" y="55.4699999999998" width="1798.32" height="2330" as="geometry" />
        </mxCell>
        <mxCell id="x2NNBHyVpTY2hgbB6gnr-21" value="" style="group" vertex="1" connectable="0" parent="1">
          <mxGeometry x="-177" y="-1319.18" width="1830.705" height="3287.6800000000003" as="geometry" />
        </mxCell>
        <mxCell id="x2NNBHyVpTY2hgbB6gnr-4" value="热床后方" style="whiteSpace=wrap;html=1;fontSize=66;" vertex="1" parent="x2NNBHyVpTY2hgbB6gnr-21">
          <mxGeometry y="551.1800000000002" width="1830.705" height="767.7149999999999" as="geometry" />
        </mxCell>
        <mxCell id="x2NNBHyVpTY2hgbB6gnr-5" value="热床前端" style="whiteSpace=wrap;html=1;fontSize=66;" vertex="1" parent="x2NNBHyVpTY2hgbB6gnr-21">
          <mxGeometry y="2933.3500000000004" width="1830.705" height="354.33" as="geometry" />
        </mxCell>
        <mxCell id="x2NNBHyVpTY2hgbB6gnr-6" value="电源线位置" style="whiteSpace=wrap;html=1;fontSize=66;" vertex="1" parent="x2NNBHyVpTY2hgbB6gnr-21">
          <mxGeometry width="1830.705" height="551.18" as="geometry" />
        </mxCell>
        <mxCell id="x2NNBHyVpTY2hgbB6gnr-20" value="" style="group" vertex="1" connectable="0" parent="x2NNBHyVpTY2hgbB6gnr-21">
          <mxGeometry y="1319.18" width="1830.705" height="1614.17" as="geometry" />
        </mxCell>
        <mxCell id="x2NNBHyVpTY2hgbB6gnr-3" value="A1 本体 俯视图" style="whiteSpace=wrap;html=1;fontSize=66;" vertex="1" parent="x2NNBHyVpTY2hgbB6gnr-20">
          <mxGeometry width="1830.705" height="1614.1699999999998" as="geometry" />
        </mxCell>
        <mxCell id="x2NNBHyVpTY2hgbB6gnr-19" value="" style="shape=image;verticalLabelPosition=bottom;labelBackgroundColor=default;verticalAlign=top;aspect=fixed;imageAspect=0;image=https://wiki.bambulab.com/a1/manual/faq/heatbed-space23.png;clipPath=inset(21% 10.62% 22.67% 24.32%);" vertex="1" parent="x2NNBHyVpTY2hgbB6gnr-20">
          <mxGeometry x="35" y="11.110000000000014" width="1776.33" height="1580" as="geometry" />
        </mxCell>
        <mxCell id="x2NNBHyVpTY2hgbB6gnr-23" value="下方净空储藏/烘干机布置灯" style="rounded=0;whiteSpace=wrap;html=1;fontSize=72;" vertex="1" parent="1">
          <mxGeometry x="4140" y="984.25" width="2755.9" height="1771.6499999999999" as="geometry" />
        </mxCell>
        <mxCell id="x2NNBHyVpTY2hgbB6gnr-24" value="AMS 料盘 区域" style="rounded=0;whiteSpace=wrap;html=1;fontSize=72;" vertex="1" parent="1">
          <mxGeometry x="4140" width="2755.9" height="984.25" as="geometry" />
        </mxCell>
        <mxCell id="x2NNBHyVpTY2hgbB6gnr-26" value="" style="group" vertex="1" connectable="0" parent="1">
          <mxGeometry x="4530" y="-2500" width="1830.705" height="2440.94" as="geometry" />
        </mxCell>
        <mxCell id="x2NNBHyVpTY2hgbB6gnr-27" value="A1 本体" style="whiteSpace=wrap;html=1;fontSize=66;" vertex="1" parent="x2NNBHyVpTY2hgbB6gnr-26">
          <mxGeometry width="1830.705" height="2440.94" as="geometry" />
        </mxCell>
        <mxCell id="x2NNBHyVpTY2hgbB6gnr-28" value="" style="shape=image;verticalLabelPosition=bottom;labelBackgroundColor=default;verticalAlign=top;aspect=fixed;imageAspect=0;image=https://wiki.bambulab.com/a1/manual/faq/%E7%A9%BA%E9%97%B4.png;clipPath=inset(31.59% 36% 6.07% 25.67%);" vertex="1" parent="x2NNBHyVpTY2hgbB6gnr-26">
          <mxGeometry x="16.190000000000055" y="55.4699999999998" width="1798.32" height="2330" as="geometry" />
        </mxCell>
        <mxCell id="x2NNBHyVpTY2hgbB6gnr-29" value="下方净空储藏/烘干机布置灯" style="rounded=0;whiteSpace=wrap;html=1;fontSize=72;" vertex="1" parent="1">
          <mxGeometry x="7460" width="2755.9" height="2775.9" as="geometry" />
        </mxCell>
        <mxCell id="x2NNBHyVpTY2hgbB6gnr-30" value="AMS 料盘 区域" style="rounded=0;whiteSpace=wrap;html=1;fontSize=72;" vertex="1" parent="1">
          <mxGeometry x="7443" y="-3440" width="2755.9" height="984.25" as="geometry" />
        </mxCell>
        <mxCell id="x2NNBHyVpTY2hgbB6gnr-31" value="" style="group" vertex="1" connectable="0" parent="1">
          <mxGeometry x="7840" y="-2450" width="1830.705" height="2440.94" as="geometry" />
        </mxCell>
        <mxCell id="x2NNBHyVpTY2hgbB6gnr-32" value="A1 本体" style="whiteSpace=wrap;html=1;fontSize=66;" vertex="1" parent="x2NNBHyVpTY2hgbB6gnr-31">
          <mxGeometry width="1830.705" height="2440.94" as="geometry" />
        </mxCell>
        <mxCell id="x2NNBHyVpTY2hgbB6gnr-33" value="" style="shape=image;verticalLabelPosition=bottom;labelBackgroundColor=default;verticalAlign=top;aspect=fixed;imageAspect=0;image=https://wiki.bambulab.com/a1/manual/faq/%E7%A9%BA%E9%97%B4.png;clipPath=inset(31.59% 36% 6.07% 25.67%);" vertex="1" parent="x2NNBHyVpTY2hgbB6gnr-31">
          <mxGeometry x="16.190000000000055" y="55.4699999999998" width="1798.32" height="2330" as="geometry" />
        </mxCell>
      </root>
    </mxGraphModel>
  </diagram>
</mxfile>
